<svg width="71" height="50" viewBox="0 0 71 50" fill="none" xmlns="http://www.w3.org/2000/svg">
<g clip-path="url(#clip0_65_1735)">
<path d="M38.957 24.4494C43.3786 22.4439 44.0325 15.8994 37.7431 15.8994H30.4596L27.768 21.1772H29.0347L25.8152 33.7912H34.2597C40.4204 33.8439 43.1911 26.5895 38.957 24.4494ZM34.2597 29.1996H32.1486L32.9402 26.3496H34.9457C37.3208 26.8245 35.8431 29.305 34.2597 29.1996ZM35.5264 23.1299H33.732L34.2597 20.6494H36.2652C38.203 21.1244 36.5293 23.2356 35.5264 23.1299Z" fill="#005FAF" stroke="#005FAF" stroke-width="0.151336"/>
<path d="M56.247 22.6399L59.0121 17.7588L55.2706 15.8071L54.7825 16.4094C52.7642 15.341 42.195 16.8162 41.5332 27.2422C41.9288 35.9883 51.7292 34.4151 52.6905 33.8601L55.3859 28.2881C52.746 30.0269 47.3406 30.8617 47.1119 25.6384C47.5861 21.331 52.6715 19.7225 56.247 22.6399ZM70.0449 15.8994H61.5445L58.8426 21.0193H60.2306L53.8246 33.7913H60.0252L61.2983 30.7107H65.1045L65.1994 33.7913H70.9073L70.0449 15.8994ZM63.0228 26.563L65.1044 21.5942L65.1993 26.563H63.0228Z" fill="#005FAF" stroke="#005FAF" stroke-width="0.151336"/>
<path d="M16.9615 32.9371L17.2917 32.8413L16.9295 32.3408L16.9615 32.9371ZM11.5403 32.8519L11.4765 33.2992C11.6408 33.2832 11.8431 33.4248 11.9238 33.1075C11.9178 32.8602 11.7295 32.8466 11.5403 32.8519ZM14.1711 32.8413C14.1438 32.7195 14.0421 32.6297 13.7877 32.7136L13.8729 33.1714C14.0819 33.125 14.1893 33.0014 14.1711 32.8413ZM8.22804 32.4666L8.12634 32.8734C8.28979 32.8802 8.48123 33.0128 8.58973 32.7717C8.597 32.6206 8.6032 32.4702 8.22804 32.4666ZM13.9475 33.5123L14.0221 33.981C14.1966 33.9854 14.3558 33.8805 14.3096 33.6615C14.2651 33.4509 14.0882 33.4842 13.9475 33.5123Z" fill="#005FAF"/>
<path d="M20.8737 16.1406C15.2339 13.2675 8.4984 13.3474 3.12477 16.0153C0.353812 20.8933 0.265584 27.7184 3.12477 33.7633C9.04487 36.7591 15.5926 36.5618 20.9153 33.8886C23.4169 28.7564 23.8301 22.5807 20.8737 16.1406ZM11.3487 30.7063L11.0144 30.7101C10.9316 29.7864 10.7108 29.01 10.2371 28.4159C8.06497 25.692 3.62478 27.7427 4.7657 23.1135C5.35894 20.7469 12.1256 19.3512 11.3487 30.7063ZM4.77372 26.1342C5.24801 27.0995 8.21949 27.2577 9.25099 27.9967C10.8872 29.1688 10.6524 30.7106 10.6524 30.7106H10.2665C9.50675 28.382 7.37458 30.2257 5.66676 29.5985C4.59454 29.2172 3.81607 27.5641 4.77372 26.1342ZM10.1876 33.7253L10.3474 32.4579L10.635 32.4792L10.5071 33.8744C10.3781 34.489 9.4618 34.4068 9.34618 33.8211L9.49525 32.3727L9.83605 32.4261L9.68699 33.6401C9.7059 34.0419 10.1089 34.0179 10.1876 33.7253ZM8.65745 34.0714L8.32966 33.9923C8.3681 33.7214 8.68938 33.1702 8.05438 33.1702L7.87762 33.8906L7.51593 33.8228L7.90017 32.0935C8.83936 32.1958 8.92153 32.4571 8.94015 32.7377C8.90307 32.9553 8.84511 33.1073 8.6576 33.1445C8.87704 33.3437 8.66018 33.761 8.65745 34.0714ZM6.57553 32.1345C6.48518 32.2543 6.30433 32.6731 6.27815 33.0068C6.25031 33.3604 6.59005 33.286 6.67465 33.2447C6.7429 33.2115 6.7936 32.9275 6.7936 32.9275L6.5557 32.8482L6.635 32.6104L7.17043 32.7889L6.9127 33.6811L6.69463 33.6215L6.71445 33.4827C6.4475 33.6044 5.95883 33.5131 5.90148 33.2052C5.84412 32.9577 6.01785 32.2076 6.29798 31.8571C6.57023 31.5163 7.23353 31.8494 7.24973 32.0553C7.26577 32.2605 7.1848 32.4915 7.1848 32.4915L6.9351 32.4444C6.9351 32.4444 6.95038 32.3703 6.97218 32.2534C6.99518 32.1296 6.67238 32.0057 6.57553 32.1345ZM11.4445 33.5867L11.3806 34.3537L11.1144 34.3431L11.2102 32.5217C11.875 32.5355 12.2561 32.6275 12.2434 33.097C12.2037 33.7383 11.6843 33.5941 11.4445 33.5867ZM12.1072 30.7104H11.6618C11.6223 29.1332 11.9255 26.2483 11.0968 24.1252C10.4689 22.5157 8.87992 21.7917 8.52776 20.4916C7.97024 18.4338 8.91911 16.2072 12.1072 16.0357C14.871 16.3194 15.7201 18.4531 15.2487 20.4397C14.4382 22.426 13.6275 22.1406 12.6182 24.1191C11.7939 26.2401 12.1078 29.0188 12.1072 30.7104ZM17.0466 33.6294L16.7377 33.7359L16.6418 31.904L17.0039 31.8082L17.8986 33.3205L17.6536 33.4803L17.3553 33.0544L17.0145 33.1822L17.0466 33.6294ZM13.4431 30.7104H13.0869C13.3805 26.6598 18.4707 27.5398 18.9359 26.1342C19.7404 27.5277 19.4512 28.7026 18.6111 29.305C16.5236 30.8023 14.5219 28.1969 13.4431 30.7104ZM15.332 32.7562L15.4918 33.5976C15.5912 33.7915 15.6587 33.7556 15.8112 33.7361C15.9882 33.608 15.9512 33.4833 15.9178 33.3206L16.2267 33.2781C16.3072 33.8877 16.0174 33.9499 15.8006 33.9917C15.3359 34.025 15.2448 33.9345 15.119 33.3314C15.0458 32.8152 14.9193 32.2701 15.3533 32.1705C16.0658 32.0617 16.0237 32.3824 16.0882 32.6071L15.7793 32.6605C15.73 32.4674 15.659 32.3908 15.5024 32.4051C15.3597 32.4706 15.3011 32.5767 15.332 32.7562ZM14.6823 33.6294C14.6971 33.8947 14.6071 34.0708 14.4373 34.13L13.713 34.2791L13.4254 32.5217C13.574 32.4975 14.3027 32.2306 14.4798 32.7136C14.5671 33.0086 14.4766 33.1144 14.3733 33.246C14.5692 33.309 14.6354 33.4615 14.6823 33.6294ZM12.8224 24.8106C14.4359 20.2675 18.128 21.0703 18.9469 23.1137C20.0688 27.2138 16.4564 26.0894 14.1425 27.7707C13.2679 28.5313 12.8077 29.4039 12.8009 30.7268H12.4044C12.3806 28.0623 12.3375 26.1756 12.8224 24.8106Z" fill="#005FAF"/>
</g>
<defs>
<clipPath id="clip0_65_1735">
<rect width="70" height="21.952" fill="white" transform="translate(1 14)"/>
</clipPath>
</defs>
</svg>
