<svg width="71" height="50" viewBox="0 0 71 50" fill="none" xmlns="http://www.w3.org/2000/svg">
<g clip-path="url(#clip0_65_1749)">
<path d="M1.08214 29.0076C1.08214 27.9951 1.06445 27.1475 1.00977 26.3891H2.92456L3.01544 27.6903H3.06851C3.50197 27.0035 4.29652 26.1897 5.77785 26.1897C6.93429 26.1897 7.8366 26.8411 8.21618 27.8158H8.25317C8.56038 27.3284 8.92066 26.9665 9.33563 26.7148C9.82377 26.3706 10.3851 26.1897 11.1065 26.1897C12.5701 26.1897 14.0498 27.1829 14.0498 30.0024V35.1846H11.8825V30.3257C11.8825 28.8636 11.3767 27.9951 10.3111 27.9951C9.55276 27.9951 8.99223 28.5387 8.75821 29.1708C8.69309 29.4121 8.65665 29.6601 8.64964 29.9099V35.1854H6.48233V30.09C6.48233 28.8644 5.99499 27.9959 4.96481 27.9959C4.13568 27.9959 3.57596 28.6473 3.37491 29.2601C3.28565 29.4772 3.24865 29.7314 3.24865 29.9823V35.1854H1.08214V29.0076ZM22.4947 33.0728C22.4947 33.8665 22.5309 34.6426 22.6202 35.1854H20.6153L20.4714 34.2107H20.4167C19.8746 34.8975 18.953 35.3833 17.8175 35.3833C16.0467 35.3833 15.0535 34.1022 15.0535 32.7648C15.0535 30.5412 17.0205 29.4234 20.2735 29.441V29.2971C20.2735 28.7181 20.0379 27.7611 18.4842 27.7611C17.6164 27.7611 16.7141 28.0329 16.1182 28.4109L15.6848 26.9657C16.3354 26.5676 17.4733 26.1889 18.863 26.1889C21.6817 26.1889 22.4955 27.979 22.4955 29.8914L22.4947 33.0728ZM20.3266 30.8878C18.7544 30.8508 17.2562 31.1942 17.2562 32.5308C17.2562 33.3977 17.8175 33.7958 18.5212 33.7958C19.405 33.7958 20.0564 33.2159 20.255 32.5847C20.3037 32.4268 20.3281 32.2625 20.3274 32.0973L20.3266 30.8878ZM24.0291 29.0076C24.0291 27.9951 24.0106 27.1475 23.9584 26.3891H25.9069L26.0147 27.7096H26.0694C26.4481 27.022 27.4059 26.1897 28.8688 26.1897C30.4048 26.1897 31.9931 27.1829 31.9931 29.9662V35.1846H29.7719V30.2187C29.7719 28.9545 29.3014 27.9943 28.0919 27.9943C27.2081 27.9943 26.5921 28.6272 26.3581 29.2963C26.2857 29.4941 26.268 29.7659 26.268 30.0168V35.1838H24.0283L24.0291 29.0076ZM41.6258 22.8555V32.7109C41.6258 33.614 41.6628 34.5911 41.6982 35.1854H39.7126L39.6217 33.7958H39.5847C39.062 34.7705 37.9948 35.3841 36.7137 35.3841C34.618 35.3841 32.9573 33.5963 32.9573 30.8886C32.938 27.9436 34.7796 26.1905 36.8947 26.1905C38.1042 26.1905 38.9711 26.6963 39.3684 27.3493H39.4062V22.8563H41.6266L41.6258 22.8555ZM39.4054 30.0555C39.4054 29.8761 39.3877 29.659 39.3507 29.4772C39.1521 28.6119 38.4492 27.9066 37.4367 27.9066C36.0101 27.9066 35.2139 29.1716 35.2139 30.8146C35.2139 32.4206 36.0093 33.5955 37.419 33.5955C38.3205 33.5955 39.1159 32.9803 39.3322 32.0233C39.3869 31.8255 39.4062 31.6076 39.4062 31.3735L39.4054 30.0555ZM43.1972 35.1854V26.3891H45.4385V35.1854H43.1972ZM47.0083 29.2255C47.0083 28.0337 46.9914 27.1837 46.9375 26.3899H48.87L48.9408 28.0683H49.0139C49.4474 26.8226 50.476 26.3899 51.4177 26.3899C51.634 26.3899 51.7595 26.3529 51.9396 26.3899V28.3417C51.7265 28.2945 51.5089 28.2703 51.2906 28.2693C50.2226 28.2693 49.5005 28.9561 49.3026 29.9477C49.2589 30.1746 49.235 30.405 49.2311 30.6361V35.1862H47.0083V29.2255ZM52.9706 35.1854V26.3891H55.2087V35.1854H52.9706Z" fill="#0D2B5B"/>
<path d="M69.1502 17.0861C68.0412 15.8211 66.8623 16.3937 65.9254 16.8593C65.5313 17.0539 62.6869 18.6663 62.6869 18.6663C61.1283 19.3089 59.9148 18.6076 59.4387 18.0173C59.3932 17.9614 59.3521 17.9019 59.3157 17.8396L59.2047 17.6474C59.0171 17.323 58.8087 17.0111 58.5807 16.7137C58.4423 16.5335 58.2924 16.3624 58.1319 16.2014C57.0655 15.1246 55.3614 14.3711 52.513 15.7398C51.1643 16.5215 46.771 19.0314 46.771 19.0314C45.12 19.711 43.8574 18.8834 43.4473 18.2763C43.4288 18.2535 43.4126 18.229 43.399 18.2031L43.3451 18.1114L43.0669 17.6562C42.9413 17.4569 42.8066 17.2634 42.6632 17.0764C42.5234 16.8973 42.3733 16.7265 42.2136 16.5649C41.1545 15.4946 39.4592 14.7426 36.6357 16.0856C34.9284 17.0603 30.9573 19.3306 30.9573 19.3306L30.9557 19.3322L28.0493 20.9929L29.5531 22.8393C30.186 23.4424 31.3754 24.4316 33.2155 23.5977C33.2155 23.5977 38.294 20.6567 38.3141 20.6479C42.6559 18.265 44.7983 20.5417 45.7457 22.0592C45.7786 22.1067 45.8052 22.1581 45.8349 22.204L45.8365 22.2064C45.8486 22.2249 45.8558 22.2418 45.8663 22.2595L45.9732 22.4348C46.4349 23.1344 47.1627 23.5864 48.0304 23.5655C48.5089 23.5558 48.8338 23.3998 49.3066 23.1368L54.2203 20.2868L54.2307 20.2819C58.6273 17.8702 60.8059 20.2956 61.7363 21.8131C61.8087 21.9442 61.8907 22.0697 61.9752 22.1863C62.436 22.8112 63.0713 23.2205 63.8787 23.2004C64.4119 23.1899 65.0094 22.8699 65.0987 22.8112L70.9894 19.411C70.991 19.4126 70.3895 18.5031 69.1502 17.0861Z" fill="#FDD213"/>
</g>
<defs>
<clipPath id="clip0_65_1749">
<rect width="70" height="20.384" fill="white" transform="translate(1 15)"/>
</clipPath>
</defs>
</svg>
