<svg width="25" height="24" viewBox="0 0 25 24" fill="none" xmlns="http://www.w3.org/2000/svg">
<path opacity="0.4" d="M15.5 4H9.5C6.74 4 4.5 6.24 4.5 9V15C4.5 17.76 6.74 20 9.5 20H15.5C18.26 20 20.5 17.76 20.5 15V9C20.5 6.24 18.26 4 15.5 4ZM17.76 14.26C17.76 15.92 16.42 17.26 14.76 17.26H10.24C8.58 17.26 7.24 15.92 7.24 14.26V9.74C7.24 8.08 8.58 6.74 10.24 6.74H14.75C16.41 6.74 17.75 8.08 17.75 9.74V14.26H17.76Z" fill="#060521"/>
<path d="M9.56 2.75V4H9.5C9 4 8.52 4.07 8.06 4.21V2.75C8.06 2.34 8.39 2 8.81 2C9.22 2 9.56 2.34 9.56 2.75Z" fill="#060521"/>
<path d="M13.25 2.75V4H11.75V2.75C11.75 2.34 12.09 2 12.5 2C12.91 2 13.25 2.34 13.25 2.75Z" fill="#060521"/>
<path d="M16.95 2.75V4.21C16.49 4.07 16 4 15.5 4H15.45V2.75C15.45 2.34 15.79 2 16.2 2C16.61 2 16.95 2.34 16.95 2.75Z" fill="#060521"/>
<path d="M22.5 8.3C22.5 8.72 22.17 9.05 21.75 9.05H20.5V9C20.5 8.5 20.43 8.01 20.29 7.55H21.75C22.17 7.55 22.5 7.89 22.5 8.3Z" fill="#060521"/>
<path d="M22.5 12C22.5 12.41 22.17 12.75 21.75 12.75H20.5V11.25H21.75C22.17 11.25 22.5 11.58 22.5 12Z" fill="#060521"/>
<path d="M22.5 15.7C22.5 16.11 22.17 16.45 21.75 16.45H20.29C20.43 15.99 20.5 15.5 20.5 15V14.95H21.75C22.17 14.95 22.5 15.28 22.5 15.7Z" fill="#060521"/>
<path d="M16.95 19.79V21.25C16.95 21.66 16.61 22 16.2 22C15.79 22 15.45 21.66 15.45 21.25V20H15.5C16 20 16.49 19.93 16.95 19.79Z" fill="#060521"/>
<path d="M13.26 20V21.25C13.26 21.66 12.92 22 12.51 22C12.09 22 11.76 21.66 11.76 21.25V20H13.26Z" fill="#060521"/>
<path d="M9.56 20V21.25C9.56 21.66 9.22 22 8.81 22C8.39 22 8.06 21.66 8.06 21.25V19.79C8.52 19.93 9 20 9.5 20H9.56Z" fill="#060521"/>
<path d="M4.71 7.55C4.57 8.01 4.5 8.5 4.5 9V9.05H3.25C2.84 9.05 2.5 8.72 2.5 8.3C2.5 7.89 2.84 7.55 3.25 7.55H4.71Z" fill="#060521"/>
<path d="M4.5 11.25V12.75H3.25C2.84 12.75 2.5 12.41 2.5 12C2.5 11.58 2.84 11.25 3.25 11.25H4.5Z" fill="#060521"/>
<path d="M4.71 16.45H3.25C2.84 16.45 2.5 16.11 2.5 15.7C2.5 15.28 2.84 14.95 3.25 14.95H4.5V15C4.5 15.5 4.57 15.99 4.71 16.45Z" fill="#060521"/>
<path d="M14.76 6.74H10.24C8.57999 6.74 7.23999 8.08 7.23999 9.74V14.25C7.23999 15.91 8.57999 17.25 10.24 17.25H14.75C16.41 17.25 17.75 15.91 17.75 14.25V9.74C17.76 8.09 16.41 6.74 14.76 6.74ZM14.09 13.04L13.15 14.68C13.01 14.92 12.76 15.06 12.5 15.06C12.37 15.06 12.24 15.03 12.13 14.96C11.77 14.75 11.65 14.29 11.85 13.94L12.53 12.76H11.94C11.46 12.76 11.07 12.55 10.86 12.19C10.65 11.83 10.67 11.38 10.9 10.97L11.84 9.33C12.05 8.97 12.51 8.85 12.86 9.05C13.22 9.26 13.34 9.72 13.14 10.07L12.46 11.25H13.05C13.53 11.25 13.92 11.46 14.13 11.82C14.35 12.18 14.33 12.62 14.09 13.04Z" fill="#060521"/>
</svg>
