<svg width="80" height="80" viewBox="0 0 80 80" fill="none" xmlns="http://www.w3.org/2000/svg">
<path d="M23.3334 19.1666C21.9667 19.1666 20.8334 18.0333 20.8334 16.6666V6.66663C20.8334 5.29996 21.9667 4.16663 23.3334 4.16663C24.7 4.16663 25.8334 5.29996 25.8334 6.66663V16.6666C25.8334 18.0333 24.7 19.1666 23.3334 19.1666Z" fill="#362EED"/>
<path d="M50 19.1666C48.6333 19.1666 47.5 18.0333 47.5 16.6666V6.66663C47.5 5.29996 48.6333 4.16663 50 4.16663C51.3667 4.16663 52.5 5.29996 52.5 6.66663V16.6666C52.5 18.0333 51.3667 19.1666 50 19.1666Z" fill="#362EED"/>
<path opacity="0.4" d="M66.6666 28.3333V56.6666C66.6666 66.6666 61.6666 73.3333 50 73.3333H23.3333C11.6666 73.3333 6.66663 66.6666 6.66663 56.6666V28.3333C6.66663 18.3333 11.6666 11.6666 23.3333 11.6666H50C61.6666 11.6666 66.6666 18.3333 66.6666 28.3333Z" fill="#362EED"/>
<path d="M43.3334 39.1666H23.3334C21.9667 39.1666 20.8334 38.0333 20.8334 36.6666C20.8334 35.3 21.9667 34.1666 23.3334 34.1666H43.3334C44.7 34.1666 45.8334 35.3 45.8334 36.6666C45.8334 38.0333 44.7 39.1666 43.3334 39.1666Z" fill="#362EED"/>
<path d="M33.3334 55.8334H23.3334C21.9667 55.8334 20.8334 54.7 20.8334 53.3334C20.8334 51.9667 21.9667 50.8334 23.3334 50.8334H33.3334C34.7 50.8334 35.8334 51.9667 35.8334 53.3334C35.8334 54.7 34.7 55.8334 33.3334 55.8334Z" fill="#362EED"/>
<path d="M70 45.4333C67.0333 43.0666 63.2666 41.6666 59.1666 41.6666C55.0666 41.6666 51.2333 43.0999 48.2333 45.5332C44.2 48.6999 41.6666 53.6666 41.6666 59.1666C41.6666 62.4333 42.6 65.5667 44.2 68.1667C45.4333 70.2 47.0333 71.9666 48.9333 73.3333C51.7999 75.4333 55.3333 76.6666 59.1666 76.6666C63.6 76.6666 67.6 75.0333 70.6667 72.3C72.0333 71.1666 73.1999 69.7667 74.1333 68.1667C75.7333 65.5667 76.6666 62.4333 76.6666 59.1666C76.6666 53.6 74.0666 48.6333 70 45.4333ZM59.1666 67.5C59.1666 62.9 55.4333 59.1666 50.8333 59.1666C55.4333 59.1666 59.1666 55.4333 59.1666 50.8333C59.1666 55.4333 62.9 59.1666 67.5 59.1666C62.9 59.1666 59.1666 62.9 59.1666 67.5Z" fill="#362EED"/>
</svg>
