<svg width="18" height="18" viewBox="0 0 18 18" fill="none" xmlns="http://www.w3.org/2000/svg">
<path d="M16.17 8.05492L15.15 6.86992C14.955 6.64492 14.7975 6.22492 14.7975 5.92492V4.64992C14.7975 3.85492 14.145 3.20242 13.35 3.20242H12.075C11.7825 3.20242 11.355 3.04492 11.13 2.84992L9.945 1.82992C9.4275 1.38742 8.58 1.38742 8.055 1.82992L6.8775 2.85742C6.6525 3.04492 6.225 3.20242 5.9325 3.20242H4.635C3.84 3.20242 3.1875 3.85492 3.1875 4.64992V5.93242C3.1875 6.22492 3.03 6.64492 2.8425 6.86992L1.83 8.06242C1.395 8.57992 1.395 9.41992 1.83 9.93742L2.8425 11.1299C3.03 11.3549 3.1875 11.7749 3.1875 12.0674V13.3499C3.1875 14.1449 3.84 14.7974 4.635 14.7974H5.9325C6.225 14.7974 6.6525 14.9549 6.8775 15.1499L8.0625 16.1699C8.58 16.6124 9.4275 16.6124 9.9525 16.1699L11.1375 15.1499C11.3625 14.9549 11.7825 14.7974 12.0825 14.7974H13.3575C14.1525 14.7974 14.805 14.1449 14.805 13.3499V12.0749C14.805 11.7824 14.9625 11.3549 15.1575 11.1299L16.1775 9.94492C16.6125 9.42742 16.6125 8.57242 16.17 8.05492ZM12.12 7.58242L8.4975 11.2049C8.3925 11.3099 8.25 11.3699 8.1 11.3699C7.95 11.3699 7.8075 11.3099 7.7025 11.2049L5.8875 9.38992C5.67 9.17242 5.67 8.81242 5.8875 8.59492C6.105 8.37742 6.465 8.37742 6.6825 8.59492L8.1 10.0124L11.325 6.78742C11.5425 6.56992 11.9025 6.56992 12.12 6.78742C12.3375 7.00492 12.3375 7.36492 12.12 7.58242Z" fill="#07B704"/>
</svg>
