<svg width="24" height="24" viewBox="0 0 24 24" fill="none" xmlns="http://www.w3.org/2000/svg">
<path opacity="0.4" d="M17.42 1.37996C17.21 1.23996 16.95 1.20994 16.72 1.29994C15.29 1.86994 13.71 1.86994 12.28 1.29994C12.05 1.20994 11.79 1.23996 11.58 1.37996C11.37 1.51996 11.25 1.74995 11.25 1.99995V4.99995V7.99995C11.25 8.40995 11.59 8.74995 12 8.74995C12.41 8.74995 12.75 8.40995 12.75 7.99995V6.01997C13.33 6.15997 13.91 6.23994 14.5 6.23994C15.44 6.23994 16.38 6.05996 17.28 5.69996C17.56 5.58996 17.75 5.30995 17.75 4.99995V1.99995C17.75 1.74995 17.63 1.51996 17.42 1.37996Z" fill="#060521"/>
<path d="M22 21.25H20.75V11C20.75 8.58 19.42 7.25 17 7.25H7C4.58 7.25 3.25 8.58 3.25 11V21.25H2C1.59 21.25 1.25 21.59 1.25 22C1.25 22.41 1.59 22.75 2 22.75H4H20H22C22.41 22.75 22.75 22.41 22.75 22C22.75 21.59 22.41 21.25 22 21.25ZM19.25 12.75V21.25H16.74V12.75H19.25ZM11.24 21.25H8.74V12.75H11.24V21.25ZM12.74 12.75H15.24V21.25H12.74V12.75ZM4.75 12.75H7.24V21.25H4.75V12.75Z" fill="#060521"/>
</svg>
