<svg width="24" height="24" viewBox="0 0 24 24" fill="none" xmlns="http://www.w3.org/2000/svg">
<path opacity="0.4" d="M10.49 2.23L5.50003 4.10001C4.35003 4.53001 3.41003 5.89 3.41003 7.12V14.55C3.41003 15.73 4.19005 17.28 5.14005 17.99L9.44003 21.2C10.85 22.26 13.17 22.26 14.58 21.2L18.88 17.99C19.83 17.28 20.61 15.73 20.61 14.55V7.12C20.61 5.89 19.67 4.53001 18.52 4.10001L13.53 2.23C12.68 1.92 11.32 1.92 10.49 2.23Z" fill="#060521"/>
<path d="M11.9 11.3C11.92 11.3 11.94 11.3 11.96 11.3H11.98H12C13.15 11.26 14.05 10.33 14.06 9.17C14.06 7.99 13.1 7.03 11.92 7.03C10.74 7.03 9.78003 7.99 9.78003 9.17C9.80003 10.32 10.7 11.26 11.9 11.3Z" fill="#060521"/>
<path d="M14.19 13.41C12.98 12.61 11.02 12.61 9.80002 13.41C9.24002 13.79 8.91003 14.33 8.91003 14.89C8.91003 15.46 9.23002 15.98 9.80002 16.36C10.41 16.76 11.2 16.97 11.99 16.97C12.78 16.97 13.58 16.77 14.18 16.36C14.74 15.98 15.07 15.44 15.07 14.88C15.08 14.31 14.76 13.79 14.19 13.41Z" fill="#060521"/>
</svg>
