<svg width="32" height="32" viewBox="0 0 32 32" fill="none" xmlns="http://www.w3.org/2000/svg">
<path d="M24.72 5.49329L17.3867 2.74662C16.6267 2.46662 15.3867 2.46662 14.6267 2.74662L7.29334 5.49329C5.88 6.02662 4.73334 7.67995 4.73334 9.18662V19.9866C4.73334 21.0666 5.44 22.4933 6.30667 23.1333L13.64 28.6133C14.9333 29.5866 17.0533 29.5866 18.3467 28.6133L25.68 23.1333C26.5467 22.48 27.2533 21.0666 27.2533 19.9866V9.18662C27.2667 7.67995 26.12 6.02662 24.72 5.49329ZM20.64 12.96L14.9067 18.6933C14.7067 18.8933 14.4533 18.9866 14.2 18.9866C13.9467 18.9866 13.6933 18.8933 13.4933 18.6933L11.36 16.5333C10.9733 16.1466 10.9733 15.5066 11.36 15.12C11.7467 14.7333 12.3867 14.7333 12.7733 15.12L14.2133 16.56L19.24 11.5333C19.6267 11.1466 20.2667 11.1466 20.6533 11.5333C21.04 11.92 21.04 12.5733 20.64 12.96Z" fill="#07B704"/>
</svg>
